PathFileType	4	(X/Y/Z)	/Users/itak/Documents/Research/Walk-IL/dataset/trc/00495_00183.trc
DataRate	CameraRate	NumFrames	NumMarkers	Units	OrigDataRate	OrigDataStartFrame	OrigNumFrames
100.000000	100.000000	4	53	mm	100.000000	445	713
Frame#	Time	RPSI			LPSI			L3			STRN			T10			C7			CLAV			RBAK			LBAK			LSHO			LUPA			LAEL			LAOL			LWTS			LWPS			LFRA			LIFD			LHPS			LHTS			RSHO			RUPA			RAEL			RAOL			RWTS			RWPS			RFRA			RIFD			RHTS			RHPS			RBHD			LFHD			RFHD			LBHD			LHIP			RHIP			RASI			LASI			LKNE			LTHI			LANK			LTIP			LTOE			LMT1			LMT5			LHEE			RKNE			RANK			RTIP			RTOE			RMT1			RMT5			RHEE			RTHI			
		X1	Y1	Z1	X2	Y2	Z2	X3	Y3	Z3	X4	Y4	Z4	X5	Y5	Z5	X6	Y6	Z6	X7	Y7	Z7	X8	Y8	Z8	X9	Y9	Z9	X10	Y10	Z10	X11	Y11	Z11	X12	Y12	Z12	X13	Y13	Z13	X14	Y14	Z14	X15	Y15	Z15	X16	Y16	Z16	X17	Y17	Z17	X18	Y18	Z18	X19	Y19	Z19	X20	Y20	Z20	X21	Y21	Z21	X22	Y22	Z22	X23	Y23	Z23	X24	Y24	Z24	X25	Y25	Z25	X26	Y26	Z26	X27	Y27	Z27	X28	Y28	Z28	X29	Y29	Z29	X30	Y30	Z30	X31	Y31	Z31	X32	Y32	Z32	X33	Y33	Z33	X34	Y34	Z34	X35	Y35	Z35	X36	Y36	Z36	X37	Y37	Z37	X38	Y38	Z38	X39	Y39	Z39	X40	Y40	Z40	X41	Y41	Z41	X42	Y42	Z42	X43	Y43	Z43	X44	Y44	Z44	X45	Y45	Z45	X46	Y46	Z46	X47	Y47	Z47	X48	Y48	Z48	X49	Y49	Z49	X50	Y50	Z50	X51	Y51	Z51	X52	Y52	Z52	X53	Y53	Z53	

446	4.45	-292.7679138183594	949.98095703125	-1.05417811870575	-231.0689544677734	951.74755859375	-107.8906707763672	-265.0213623046875	1025.587890625	-58.57859039306641	-62.04538345336914	1179.130004882812	33.68028259277344	-277.66455078125	1130.65185546875	-61.72954559326172	-228.2867736816406	1358.039428710938	-30.96955299377441	-92.07039642333984	1276.7744140625	24.92758178710938	-313.9391174316406	1238.022338867188	21.21811103820801	-219.9591979980469	1309.017333984375	-124.8051071166992	-102.2085647583008	1352.6650390625	-152.8165435791016	-92.54300689697266	1227.323608398438	-217.1707458496094	-79.36474609375	1018.411315917969	-245.8208618164062	-176.0760498046875	1012.937561035156	-221.0658569335938	-20.45700073242188	834.6065673828125	-170.4247436523438	-61.07748031616211	801.8607177734375	-248.2303771972656	-59.47369003295898	944.512939453125	-240.7892456054688	-14.23108100891113	676.2110595703125	-171.9065093994141	-39.95639801025391	748.361572265625	-235.5995635986328	2.121507883071899	758.6334228515625	-186.8069000244141	-239.2831726074219	1345.60009765625	126.7794189453125	-282.3983459472656	1278.815185546875	168.1923828125	-326.5741577148438	1013.812316894531	192.2338256835938	-356.9861755371094	1003.790954589844	133.8488922119141	-238.1869354248047	807.2589111328125	210.2642669677734	-329.0325622558594	789.4852905273438	210.9882507324219	-331.4601135253906	959.2625122070312	198.6004638671875	-250.5498199462891	648.6437377929688	212.8371734619141	-243.0025787353516	716.0912475585938	237.3896331787109	-311.8333435058594	715.8201293945312	222.5066528320312	-218.6997375488281	1504.385498046875	74.52033233642578	-38.13541793823242	1561.276245117188	9.700656890869141	-97.40187072753906	1550.287475585938	121.7439956665039	-156.59765625	1515.6123046875	-72.80567169189453	-75.60431671142578	875.8320922851562	-172.8704528808594	-255.2701873779297	856.321533203125	161.4092102050781	-137.7435455322266	902.1321411132812	146.5096282958984	-26.31067657470703	907.1838989257812	-68.25459289550781	-134.2856597900391	452.9761657714844	-127.4284744262695	-88.58345794677734	608.2811889648438	-141.4063262939453	-297.592529296875	48.94287490844727	-169.4340515136719	-185.7831726074219	305.9632263183594	-143.2046813964844	-149.8949432373047	35.69697189331055	-25.32477951049805	-234.3817443847656	40.20379638671875	-33.00687408447266	-195.6450500488281	40.80322265625	-128.1154937744141	-368.4093322753906	46.94634246826172	-136.3578033447266	-129.1152648925781	493.5585327148438	201.5213928222656	-35.13581466674805	56.97377014160156	248.6440734863281	-74.74991607666016	359.1133422851562	229.1672058105469	142.5909423828125	128.9210357666016	310.0284423828125	111.5132369995117	106.6801528930664	245.2324066162109	47.17357635498047	90.54014587402344	317.0948486328125	-50.1856689453125	35.1235466003418	182.5716400146484	-215.4184417724609	736.2553100585938	191.3106842041016	
447	4.46	-288.6761474609375	949.24560546875	2.699314117431641	-227.3968811035156	950.9044189453125	-104.3893203735352	-261.2002563476562	1024.758666992188	-55.19452667236328	-57.83967590332031	1178.3173828125	36.76594924926758	-273.9270629882812	1129.864013671875	-58.44712829589844	-224.2747192382812	1357.228393554688	-27.60245895385742	-87.93534088134766	1275.9765625	28.0855884552002	-309.8699951171875	1237.168090820312	24.73290252685547	-216.1013488769531	1308.23291015625	-121.4128875732422	-98.37012481689453	1351.890869140625	-149.63720703125	-88.94082641601562	1226.5439453125	-214.03125	-76.45076751708984	1017.591491699219	-242.81689453125	-173.0945434570312	1012.432556152344	-217.6748657226562	-18.67753410339355	832.814453125	-168.2334442138672	-59.7623176574707	800.79150390625	-246.0980529785156	-56.93104934692383	943.4031372070312	-238.0957946777344	-13.89903163909912	674.3343505859375	-170.4761199951172	-39.1076774597168	747.0236206054688	-233.7682189941406	3.161973714828491	756.6820678710938	-185.0014038085938	-235.0181427001953	1344.731323242188	130.1837158203125	-278.1192321777344	1277.953369140625	171.6181182861328	-322.3150939941406	1012.951965332031	195.5654449462891	-352.8262634277344	1002.975708007812	137.2073974609375	-233.9044189453125	806.3319091796875	213.260009765625	-324.7774963378906	788.60791015625	214.2756042480469	-327.2069091796875	958.3999633789062	201.8891448974609	-246.4228668212891	647.7069091796875	215.7719116210938	-238.69091796875	715.1435546875	240.3276062011719	-307.5955200195312	714.9132080078125	225.6676788330078	-214.9698028564453	1503.3818359375	77.83782196044922	-34.40679550170898	1560.678100585938	13.25267314910889	-93.75922393798828	1549.459838867188	125.206184387207	-152.7235870361328	1514.817016601562	-69.42400360107422	-72.06324005126953	874.886474609375	-169.7612915039062	-250.8150939941406	855.6727294921875	165.0622863769531	-133.1771850585938	901.3917846679688	149.7705078125	-22.58403587341309	906.22412109375	-65.46705627441406	-131.8641052246094	452.1808471679688	-124.7020492553711	-85.84201812744141	607.3032836914062	-138.4817047119141	-297.5323486328125	49.24104690551758	-169.2149810791016	-184.2316436767578	305.5013732910156	-141.3123474121094	-149.8441009521484	35.67369079589844	-25.34209060668945	-234.3850708007812	40.13991928100586	-32.91873931884766	-195.5655517578125	40.74322509765625	-128.0250701904297	-368.4251098632812	47.42295837402344	-136.1394348144531	-124.0836715698242	492.9357604980469	204.4507904052734	-32.21767807006836	55.76203536987305	249.9566345214844	-70.12194061279297	358.1276245117188	231.7187194824219	145.892333984375	126.5122985839844	311.69287109375	114.6755523681641	104.6240386962891	246.8285217285156	50.1670036315918	88.79542541503906	318.5731811523438	-47.39822769165039	34.16861724853516	183.8856658935547	-210.8944549560547	735.5449829101562	194.8919982910156	
448	4.47	-284.4844360351562	948.531005859375	6.610848426818848	-223.6664276123047	950.0399169921875	-100.7497940063477	-257.2822570800781	1023.9287109375	-51.66183471679688	-53.5677604675293	1177.519775390625	39.90925598144531	-270.1312255859375	1129.061889648438	-54.98155212402344	-220.2317352294922	1356.418334960938	-24.12981605529785	-83.74072265625	1275.187622070312	31.30788612365723	-305.7384948730469	1236.319458007812	28.38639259338379	-212.2254333496094	1307.437622070312	-117.9147491455078	-94.52375030517578	1351.124389648438	-146.3869781494141	-85.34815216064453	1225.779907226562	-210.8321685791016	-73.52576446533203	1016.792114257812	-239.7704620361328	-170.0950317382812	1011.935974121094	-214.2198791503906	-16.86985969543457	831.06591796875	-165.9849395751953	-58.42696380615234	799.7607421875	-243.8808288574219	-54.38610458374023	942.3412475585938	-235.3506622314453	-13.64388751983643	672.5068359375	-168.9522705078125	-38.2493896484375	745.719970703125	-231.841064453125	4.204864025115967	754.7606201171875	-183.1180419921875	-230.6478729248047	1343.87451171875	133.6974029541016	-273.7418518066406	1277.107788085938	175.1617279052734	-317.9660339355469	1012.113891601562	198.9906463623047	-348.5624694824219	1002.191589355469	140.6501770019531	-229.5357208251953	805.4407348632812	216.3818664550781	-320.4311828613281	787.7476806640625	217.6622924804688	-322.8712463378906	957.5646362304688	205.2789459228516	-242.1751861572266	646.8055419921875	218.8399505615234	-234.2835540771484	714.2335205078125	243.3950653076172	-303.2554626464844	714.0307006835938	228.9419708251953	-211.2063140869141	1502.37451171875	81.22866058349609	-30.68727493286133	1560.109985351562	16.84639930725098	-90.09817504882812	1548.672973632812	128.7222290039062	-148.8451538085938	1514.022827148438	-65.98503875732422	-68.51760864257812	873.908203125	-166.5885009765625	-246.1772003173828	855.0875854492188	168.9032287597656	-128.4679412841797	900.6840209960938	153.121337890625	-18.77906227111816	905.26171875	-62.61355590820312	-129.4650573730469	451.4041748046875	-122.036376953125	-83.16556549072266	606.3135375976562	-135.6037139892578	-297.4709167480469	49.56817245483398	-168.9987030029297	-182.7303314208984	305.095947265625	-139.4834442138672	-149.8014678955078	35.65238952636719	-25.35923767089844	-234.3831787109375	40.08703231811523	-32.82888031005859	-195.4909362792969	40.69503021240234	-127.9360122680664	-368.4226379394531	47.98416519165039	-135.9141235351562	-119.0592422485352	492.25390625	207.3789520263672	-29.83514022827148	54.42217254638672	251.1165161132812	-65.59223937988281	357.0301208496094	234.159423828125	148.8639526367188	123.7335433959961	312.8112487792969	117.372184753418	102.2223129272461	247.9497833251953	52.82085037231445	86.79841613769531	319.7132568359375	-45.29125213623047	33.08461380004883	185.0560150146484	-206.1707916259766	734.8565063476562	198.6106262207031	
449	4.48	-280.193359375	947.8386840820312	10.69598484039307	-219.8656158447266	949.1668090820312	-96.95792388916016	-253.2753295898438	1023.097961425781	-47.95642471313477	-49.23140335083008	1176.736938476562	43.11604309082031	-266.2516784667969	1128.240234375	-51.32685852050781	-216.1599884033203	1355.605224609375	-20.54800796508789	-79.48581695556641	1274.4033203125	34.59794616699219	-301.5355834960938	1235.472778320312	32.17206192016602	-208.3278656005859	1306.627319335938	-114.3125534057617	-90.66797637939453	1350.360595703125	-143.0660247802734	-81.77019500732422	1225.024536132812	-207.5715942382812	-70.59026336669922	1016.009765625	-236.6832427978516	-167.0755004882812	1011.441223144531	-210.7056579589844	-15.02247047424316	829.364013671875	-163.6697387695312	-57.05263900756836	798.7696533203125	-241.5770416259766	-51.83967971801758	941.328125	-232.5558776855469	-13.468674659729	670.7249145507812	-167.3477478027344	-37.36349868774414	744.4525146484375	-229.8076477050781	5.272339820861816	752.8776245117188	-181.1471252441406	-226.1806640625	1343.0283203125	137.3175506591797	-269.2635803222656	1276.276245117188	178.8216094970703	-313.5274047851562	1011.29443359375	202.5168762207031	-344.2003784179688	1001.433044433594	144.1877136230469	-225.0877532958984	804.5838012695312	219.6370849609375	-315.9974975585938	786.9019165039062	221.1510009765625	-318.4555053710938	956.7526245117188	208.7778625488281	-237.8048858642578	645.9356689453125	222.0359649658203	-229.7831573486328	713.354248046875	246.5904388427734	-298.8132629394531	713.1692504882812	232.3305511474609	-207.4070434570312	1501.3623046875	84.69513702392578	-26.98084449768066	1559.571655273438	20.47834968566895	-86.41995239257812	1547.92578125	132.2932891845703	-144.9649810791016	1513.233642578125	-62.48759841918945	-64.99634552001953	872.9107666015625	-163.3622894287109	-241.3535614013672	854.54736328125	172.9391784667969	-123.616584777832	899.9929809570312	156.5684967041016	-14.88587379455566	904.2991943359375	-59.67933654785156	-127.1021118164062	450.671875	-119.4761047363281	-80.54287719726562	605.3453979492188	-132.7740631103516	-297.3927917480469	49.93049240112305	-168.7955474853516	-181.2857208251953	304.7668762207031	-137.755126953125	-149.767822265625	35.63355255126953	-25.37878227233887	-234.3729248046875	40.05440139770508	-32.74293518066406	-195.4202575683594	40.65868377685547	-127.8547592163086	-368.3914184570312	48.63180160522461	-135.7022857666016	-114.0741653442383	491.48681640625	210.3068542480469	-27.91765403747559	52.9729118347168	252.1460876464844	-61.18387222290039	355.8104553222656	236.4848022460938	151.5649871826172	120.6215438842773	313.4209289550781	119.6670913696289	99.51273345947266	248.6261749267578	55.19949340820312	84.5718994140625	320.5415649414062	-43.77790451049805	31.89373207092285	186.1015472412109	-201.2063903808594	734.1873168945312	202.4687805175781	
